<?xml version="1.0" encoding="utf-8"?>
<!-- Generator: Adobe Illustrator 27.5.0, SVG Export Plug-In . SVG Version: 6.00 Build 0)  -->
<svg version="1.1" id="Layer_1" xmlns="http://www.w3.org/2000/svg" xmlns:xlink="http://www.w3.org/1999/xlink" x="0px" y="0px"
	 viewBox="0 0 500 500" style="enable-background:new 0 0 500 500;" xml:space="preserve">
<style type="text/css">
	.st0{fill:#231F20;}
	.st1{fill-rule:evenodd;clip-rule:evenodd;fill:#393839;}
	.st2{fill:#8BC53F;}
	.st3{fill:#9CA253;}
	.st4{fill:#808646;}
	.st5{fill:#727C34;}
	.st6{fill:#828A37;}
	.st7{fill:#909739;}
	.st8{fill:#B5C657;}
	.st9{fill:#DAE36D;}
	.st10{fill:#DBBA3B;}
	.st11{fill:#EFD243;}
	.st12{fill:#FBEC7D;}
	.st13{fill:none;stroke:#8EC640;stroke-width:14;stroke-miterlimit:10;}
</style>
<path class="st0" d="M46.4,7.6h408.3c21.6,0,39.1,17.5,39.1,39.1v407.6c0,21.6-17.5,39.1-39.1,39.1H46.4
	c-21.6,0-39.1-17.5-39.1-39.1V46.7C7.3,25.1,24.8,7.6,46.4,7.6z"/>
<g>
	<g>
		<path class="st1" d="M156.8,225.4c-0.3-0.5-0.7-1-0.9-1.6c-2.5-6.4-7.5-8.6-13.9-8.9l0.1,0.1c-4.9-3.5-9.8-1.5-14.3-0.1
			c1.2,3.1,3.3,6.1,3.5,9.2c0.2,3.1-1.5,6.3-2.4,9.7c-5.8-4.3-6.3-8-2.8-18.5c-3.9,2-7.2,3.7-10.5,5.4l0.1,0
			c-5.6,0.9-10.4-1.4-14-5.2c-3.2-3.3-6.2-6.3-10.7-7.6c4.3,0.1,8.4,0.6,11.6,3.9c3.7,3.9,7.8,5.1,12.8,2.9c2.5-1.1,5.2-1.7,7.8-2.7
			c1.3-0.5,2.4-1.2,4.5-2.3c-2.6-1.9-4.5-3.6-6.6-4.8c-4.1-2.3-6.4-5.2-6-10.3c0.1-1.5-1.3-3.5-2.7-4.6c-1.4-1.1-3.5-1.7-5.4-1.9
			c-4.2-0.4-7.5-2.2-10.6-4.9c-4.9-4.4-9.8-8.8-14.6-13.3c-0.9-0.8-1.5-1.8-2.3-2.7c0.2-0.2,0.4-0.4,0.5-0.6c1.9,1.5,4,2.9,5.8,4.4
			c5.8,4.9,11.5,10,18.9,12.5c2.3,0.8,4.6,1.7,7,2c4.4,0.5,7.5,2.3,8.5,7c0.8-4.8,3.9-7.2,7.8-9.2c1.2,5.1,0.2,6.5-7.4,11.3
			c0.6,4.6,2.1,8.2,7.2,9.6c1.9,0.5,3.7,2.1,5.2,3.6c2.6,2.7,5.6,3.5,9.1,3.2c5.9-0.6,11,0.2,14.8,5.6c1.8,2.6,3,0.3,3.6-1.2
			c2.9-7.2,2.7-14.4-1.8-20.9c-2.6-3.7-6.2-6.6-9.3-9.9h0.1c-1-1.2-1.9-2.7-3.1-3.6c-10.7-8.3-21.7-16.3-34-22.1
			c12,2.8,22.2,8.9,31.3,16.6v-28.4h0.3c0.7,7.9,1.4,15.7,2.1,23.6c0.5,5.9,3.7,10.1,8.3,13.4c0,0.2,0,0.3-0.1,0.4
			c3.5,4.7,7,9.3,10.6,14c-0.2-4.9,3.1-7.6,6.7-10.2c1.4,4.6,0.6,7-3.9,10.5c-1.7,1.3-2,2.5-1.9,4.7c0.3,4.9,0.2,10-0.7,14.8
			c-1.1,5.7,0.6,9.5,5,13.2c5.9,5,12.2,5.8,19.5,3.8c-0.1-0.7-0.3-1.5-0.5-2.2c-0.9-3.4-0.8-6.7,1.9-9.3c2.9-2.8,3-6.2,2.5-9.9
			c-0.6-4.1-1-8.2-0.9-12.3c0.1-4.5-1.6-7.5-5.5-9.6c-6.1-3.2-12.1-6.5-18.1-10c-2.4-1.4-4.3-3.4-6.1-5.5c2.8,1.2,5.7,2.4,8.5,3.5
			l0,0c3,1.5,5.9,3.1,9,4.3c0.5,0.2,2.3-0.9,2.4-1.6c0.5-3.6,0.7-7.2,0.9-10.8c0.1-1.2-0.3-2.4-0.4-3.6c0.3,0,0.7-0.1,1-0.1
			c0.3,4.6,0.9,9.3,0.8,13.9c-0.1,3,0.6,4.6,3.4,5.8c7,3.1,8.3,5.9,8.1,13.6c-0.1,3.6,1.2,7.3,1.3,10.9c0.1,4,0,8-0.6,11.9
			c-0.4,2.7-1.5,5.3,0.6,7.8l-0.1-0.1c1.7,1.2,3.2,3,5,3.5c5.2,1.3,8.5,4.4,10.7,9.1c0.1,0.3,0.1,0.7,0.4,0.8
			c7.1,5.8,10.3,15.5,19.3,19.6c3.2,1.5,4,1.5,5.5-1.6c2.9-5.9,3.8-12.3,3.6-19.2c-4.5,1.3-7.3-0.5-9.6-4c3.9-1.3,6.3,0.9,9,3
			c-3-6.1-2.6-13.7-8.9-18.2c-3-2.2-4.4-5.2-4.5-8.9c0-2,0.1-4.1,0-6.1c-0.2-7.3-2.3-13.7-8.1-18.6c-4.7-3.9-9.4-7.8-13.7-12.1
			c-2.8-2.8-5.4-6.1-7-9.7c-2.4-5.2-4.3-10.8-5.6-16.4c-2.7-11.9-10.5-18.5-21.9-21c-9.9-2.2-20.1-3.6-30.6-5.4c0.1,5.7-3,8-7,9.6
			c-0.6-3.7-0.4-3.9,6.3-8.9c-3.4-0.2-6.4-0.4-9.3-0.6c0-0.2-0.1-0.4-0.1-0.6c5-0.5,10-1.2,15-1.4c8.8-0.3,17.4,0.8,25.9,3
			c5.9,1.6,11.2,4,15.9,7.9c7,5.6,14,4.1,18.3-3.8c1.4-2.6,2.5-5.2,4-8.3c-0.4,7.9-2.3,14.4-9.7,18.1c-3.4,1.7-4.2,5-3.9,8.6
			c1.1,11.6,6.2,21,15.2,28.4c0.3,0.3,0.6,0.5,0.9,0.8c3.9,2.6,7.5,5.7,11.7,7.5c5.8,2.4,7.6,6.8,8.4,12.3c0.4,2.8,0.5,5.6,0.6,8.5
			c0.4,7.4,3.1,10.9,10.2,12.7c2.9,0.7,4.9,2.5,5.8,5.2c2,5.8,3.9,11.7,5.8,17.6c0.3,0.9,0.6,1.9,1,3.5c0.6-2.7,1.2-4.6,1.6-6.6
			c1-5.1,2.7-9.7,6.9-13.1c2.5-2.1,3.7-4.8,3.8-8.3c0.1-6.9,2.2-13.2,7.7-17.8c4-3.4,4.4-8.2,5.5-12.8c0.1-0.5-0.8-1.7-1.5-1.9
			c-1-0.4-2.2-0.4-3.3-0.4c-9.6-0.3-14.9-5.4-15.4-15.1c-0.1-1.8-0.1-3.6-0.2-5.5c-0.2-5.9-3.5-9.1-9.6-9.4l0.1,0.1
			c-2.3,0-4.6,0.2-6.8-0.1c-2.9-0.3-6.4-0.1-8.7-1.6c-4.4-3-9-5.1-13.9-6.9l-0.1,0.1c1.9-0.1,3.8-0.3,5.8-0.4c3-0.1,5.6,0.6,7.4,3.3
			c1.8,2.6,4.2,3.1,7.2,2.1c1.7-0.6,3.6-0.6,5.4-0.6c6.8,0.1,7.2-0.2,9.5-6.7l0,0c1.5-3.1,2.4-6.6,0.9-9.7
			c-2.7-5.8-2.5-11.7-1.2-17.5c2.2-9.6,4.9-19,7.4-28.5c0.1-0.4,0.3-0.7,0.9-0.9c-1.2,6.5-2.4,13.1-3.4,19.6c-0.9,6-1.8,12-2.2,18.1
			c-0.1,2,0.7,4.4,1.8,6.2c1.5,2.5,1.7,4.7,0.7,7.4c-1.5,4.1-2.9,8.4-0.5,12.6c0.9,1.6,2.9,3.7,4.3,3.6c1.7-0.1,3.6-1.9,4.8-3.5
			c1-1.3,1.2-3.2,1.7-4.8c1.5-5.9,4.5-8.3,11.3-8.7c-1.5,0.8-2.5,1.3-3.6,1.8c-3.5,1.8-5.6,4.6-5.5,8.7c0.1,4.4-1.6,7.6-5.8,9.4
			c-2.6,1.1-3.7,3.3-3.7,6.1c0,4.1-0.5,8.3,3.9,12c-0.9-9,4.3-13.3,10.9-17.2c2.1,9.2-4.1,13.1-10.1,17.8c2.7,0.6,5.4,1.6,8.2,1.8
			c3.4,0.3,6.9,0.3,10.3-0.2c7.9-1.3,12.4-6.5,13.3-14.1c0.9-7.8,4.3-13.4,11.5-16.5c0.3-0.1,0.6-0.5,1.1-0.9
			c-10.4-6-10.5-15.6-9.2-25.7c5.2,1.3,9.9,7.3,10.1,13.1c0.1,4,0,8.1,0,12.1c7.5-1.7,13.7-12.3,12.9-22.2l-0.1,0.1
			c0.3-0.4,0.6-0.7,1-1.2c0.3,1.7,0.6,3.4,0.9,5c1.1-8.5,7.5-11.5,14.3-14.3c0.7,7.8-3.5,12.5-13.3,15.6c-1.4,4.3-2.6,8.1-3.8,11.8
			l-0.2,0.2c-2.9,1.9-5.7,3.8-8.5,5.7c-0.2,0.2-0.4,0.3-0.6,0.5c-7.7,3.6-12.4,9.3-12.3,18.2c0.1,6.4-2.6,11-8.1,13.8
			c-4.9,2.5-7.2,6-6.8,11.6c0.3,4.4-1.4,8-5.1,11.1c-1.8,1.4-2.8,4.7-2.9,7.2c-0.3,6.1-2.5,11.2-6.2,15.8c-4.9,6-7,13.3-9.2,20.6
			c0.6-0.9,1.2-1.8,1.8-2.7c2.9-4.5,6.4-8.4,11.1-11c3.7-2.1,6.2-4.9,7.4-9.4c2.2-8.2,8-11.8,17.7-12.2c2.4-0.1,4.9-0.1,7.2-0.7
			c1-0.3,2.5-2.4,2.2-3.1c-1.8-5.4,0.4-9.2,4.1-12.8c0.2-0.2,0.3-0.5,0.5-0.8l-0.1,0.1c1.1-0.7,2.2-1.3,3.8-2.3
			c-0.6,1.3-1,2.2-1.5,3.1c-0.9,1.8-2.1,3.5-2.7,5.4c-1.9,6.5,0.8,10.1,6.9,8.9c0.9-0.2,1.8-0.2,2.7-0.2c5.8-0.5,8.5-2.7,9.6-8.4
			c0.9-4.9,2.3-9.2,6.7-12.4c2.7-2,2.2-6.9-0.3-9.6c-1.7-2-3.4-4-5-6.1c-2.5-3.4-5.7-4.3-9.9-3.2c4.1-3.4,8.6-2.8,12.7,1.2
			c4.7,4.7,5.6,4.5,8-1.8c2.6-6.9,7.4-9.5,14.6-7.9c0.4,0.1,0.8,0.1,1.2,0.2c5.2,1.2,6.2,0.6,7.4-4.6c0.2-0.8,0.4-1.6,0.5-2.4
			c0.2-6.2,4.3-9.2,10.1-11.8c-0.9,1-1.2,1.5-1.6,1.8c-4.2,3.3-5.5,7.7-5.5,12.9c0.1,6.8-2,8.6-8.8,8.2c-1.2-0.1-2.4-0.4-3.6-0.6
			c-7-1.6-13,3.2-13.1,10.6c1.6-0.3,3.3-0.8,4.9-0.7c1.6,0.1,3.2,0.9,5,1.6c-3.6,3.5-6.8,1.5-10.3,0.2c0.8,7.6-2.6,13.5-7,19.1
			c0.3,0.3,0.5,0.5,0.8,0.8c2.3-0.8,4.9-1.2,7-2.4c6.3-3.6,12.8-4.6,19.9-2.4c3.2,1,5.8-0.3,7.8-3.2c4.5-6.4,4.5-6.3,6.1-14.2
			c0.9-4.5,4-7.3,8.1-8.2c6.8-1.4,11.7-4.7,15-10.8c-0.1,1-0.2,2.1-0.3,3.7c9.3-6.1,17.1-2.4,24.9,2.6c-7,5.7-11.5,5.4-25.3-2.2
			c-1.9,7-6.5,10.4-13.8,10.5c-2.1,0-3.3,1.5-3.4,3.6c-0.1,1.4-0.1,2.9,0.2,4.2c0.7,2.9-0.2,5.1-2.3,7.1c-3.7,3.7-3.7,5.6-0.3,9.6
			c1.2,1.4,2.5,2.7,4,3.8c2.8,2.1,5.9,2.6,9,0.6c4.5-2.9,8.7-2.2,13,0.6c4.9,3.2,10.1,4.7,15.6,1.3c-3.2,3.8-7.4,4.6-11.9,3.5
			c-2.4-0.6-4.7-1.4-6.9-2.4c-4.1-1.9-7.6-1.3-10.6,1.4c2.5,1.4,5,2.9,7.5,4.4c-0.2,0.3-0.3,0.6-0.5,1c-2.5,0.8-4.8,0.4-6.6-1.8
			c-1.2-1.5-2.6-1.9-4.8-2c-2.9-0.2-5.6-2.2-8.4-3.5c-0.9-0.4-1.6-1.1-2.4-1.7c-0.1-0.1-0.2-0.2-0.2-0.2c-1-2.9-3.4-4.1-6.1-4.1
			c-6,0.1-12.1,0.3-18.1,1.1c-7.9,1.1-13.6,6.1-18.7,11.9c-0.1,0.4-0.2,0.7-0.2,1c-2.5,2.7-5.1,5.5-7.5,8c3.6,0.4,5.8,3.3,7.5,6.9
			c-4.5,0.8-5.1,0.4-9.9-6.8c-4.8,0.9-9.6,2-14.5,2.7c-4.1,0.6-8.2,1.2-12.3,1.3c-3.4,0.1-5.6,1.2-7.2,4.1c-0.6,1.1-1.2,2.1-1.5,3.3
			c-2.3,6.8-6.9,11.8-12.3,16.3c-0.9,0.7-1.6,1.7-2.4,2.6c-0.3,0.1-0.6,0.1-0.9,0.2c-7.1,4.4-12.3,10.1-13.2,18.9
			c-0.3,2.9-1.4,5.7-1.9,8.6c-0.7,4.1,1.5,6.3,5.4,5.2c5.5-1.6,10.9-3.7,16.2-5.9c3.3-1.3,4.9-4,5.1-7.6c0.3-5.3,3.1-8.7,8.2-10
			c4.7-1.2,9.5-2.1,14.7-3.3c-3.1-3.2-2.7-6.5-1-10c3.2,2.6,2.2,5.8,1.6,8.9c0.2,0.1,0.5,0.3,0.8,0.4c1.2-1.6,2.4-3.2,3.5-4.9
			c2.4-3.6,4.7-7.2,7.1-10.9v0.1c4.6-2.8,9.2-5.6,13.8-8.3c2-1.2,3-2.8,3.2-5.4c0.6-8.9,6.2-13.6,15-14.3c4.2-0.3,8.2-2.3,12.1-3.5
			c-2.6,3.2-6.4,5.4-10.9,6.6c-0.4,0.1-0.8,0.1-1.2,0.2c-4.3,0.6-8.3,2-9.1,7c-0.9,5.5-0.5,10.7,4.7,14.4c5.4,3.8,6.5,4.1,11.5,0.1
			c5-4,10.7-5,17.2-4.9c-0.8-5.4,2.2-8.4,6.4-10.6c1.6,3.9,1,4.9-5.2,10.8c4.9,1.4,9.6,3.1,15.1,1.4c-2.8-5.5-0.8-9.7,3.2-13.7
			c3.1,4.5,1.7,8.3-1.3,12.2c4.1-3.8,8.6-6.2,14.2-5.6c2-6.1,3.8-7.9,9.6-9.5c0.5,5.5-3.3,7.5-7.9,9.4c5.9,2.7,11.2,5.1,16.4,7.5
			c-3.2,1.4-7.1,2.3-11.2,0.7c-2.4-0.9-4.6-2.1-7-2.8c-1.7-0.4-3.5-0.1-5.2-0.1c2.9,2.7,5.5,5,8,7.3c-0.2,0.3-0.5,0.6-0.8,0.9
			c-4.9,1-6.9-2.6-9.4-6.6c-3.1,5.1-8.3,4.9-13.2,5.8c-3.1,0.6-3.5,1.8-1.3,4c3,3.1,6.2,6.1,9.5,9c1.9,1.8,4.3,2.2,6.8,1.4
			c4.6-1.5,9.3-2.2,13.9-0.2c0.6,0.2,1.2,0.6,1.8,1c-4.6-1-8.8,0.2-13,2c-6.1,2.7-11.5,1.2-15.9-3.7c-1-1.1-2-2.1-3.4-3
			c3.8,7.5,0.4,13.4-3.6,19.4c-5.8-7.6-1.7-13.8,2.6-20.3c-4.1-2.2-6.7-5.5-8-9.9c-0.3-1-2.5-2.1-3.9-2.1c-3.9,0-7.4,1.3-9.5,5
			c-1.7,2.9-4,4.7-7.6,4.7c-3.1,0-5.3-1.4-7.3-3.7c-3.3-4-8-5.4-13.6-6.8c3.1,1.9,5.4,3.3,8.1,4.9c-3.7,1.9-4.3,1.7-10-3.3
			c-5.3,5.6-10.6,11.2-16,16.8c-2.2,2.2-4.6,4.2-7,6.2c-1,0.8-2.1,1.5-3.8,2.6c5,3.3,9.7,6.4,10.8,13c1.9-1.4,3.3-2.5,4.8-3.5
			c4-2.8,6.5-2.3,9,1.8c0.4,0.7,0.8,1.4,1.2,2.1c5,8.5,12,11.2,21.4,8c1.7-0.6,3.2-2.5,4.3-4.1c1.1-1.7,1.3-4.1,2.6-5.8
			c1-1.4,2.9-2.9,4.5-2.9c5.7,0,11.4,0.6,16.8,1c-3.9,1.9-8,3.7-12.9,2.6c-3.9-0.9-5.2,0.4-5.4,4.8c7.2-3,12.3,0.6,17.1,5.1
			c-4.5,3.5-7.5,2.7-17.5-4.5c-0.2,4.2-2.9,5.6-6.5,6.1c-2.5,0.3-4.9,1.1-7.5,1.6c7.1,7.7,14.2,8.9,22.6,3.8c4.2-2.6,8.3-3.2,13-1.3
			c2.8,1.1,5.8,1.5,8.8,2.2c-4.4,1.2-8.9,0.6-13.2-0.7c-3.3-1-5.4-0.1-7.4,2.4c-4.5,5.7-10.7,6.9-17,3c-2.5-1.5-4.7-3.6-6.8-5.6
			c-2.6-2.5-5.5-4.1-9.2-3.9c-3.1,0.2-5.4-1.2-7.3-3.7c-5.4-6.8-5.4-6.7-13.7-3.8c-0.6,0.2-1.2,0.5-2.7,1
			c11.8,4.1,13.5,13.4,14.4,23.6c-10.1-2.4-13.3-7.6-14.8-23.4c-4.1-1-6-4.6-8.2-7.9c-4.1-6-6.5-6.3-10.8-0.7
			c-3.5,4.6-7.4,8.4-12.5,11.2c-3.4,1.9-5.4,5.1-6.2,9.1c4,0.6,8,0.9,11.7,2c3.4,1,7,2.3,9.9,4.4c4.5,3.1,9.3,4.9,14.6,5.5
			c1.6,0.2,3.4,0.4,4.6,1.3c5.8,4.6,12.5,4.1,19.2,3.9c3.3-0.1,6.6-0.5,10-0.4c-3.4,2.6-7.5,3-11.5,3.6c-10.8,1.6-21.5,0.5-31.7-3.2
			c-8.1-2.9-16.6-4.3-25-4.4c-8.4-0.1-15.7,3.1-20.2,11.1c-4.8,8.4-6.6,16.9-3.6,26.5c1.5,4.7,0.9,10,1.4,15
			c0.2,1.6,0.8,3.2,1.3,4.8c0.1,0.2,0.3,0.4,0.3,0.5c0,9,9.2,12.3,12.3,19.5c0.6,1.5,3.6,2.5,5.7,2.9c19.2,3.9,38.5,7.7,57.8,11.5
			c0.9,0.2,1.7,0.5,2.4,1.3c-5.6-0.5-11.2-1.1-16.8-1.6c-6.7-0.5-13.3-1-20-1.5c-2.4-0.2-4.8-0.7-7.2-1c-1.7-0.2-3.5-0.4-5.1-0.1
			c-4.5,0.8-9,0.7-13.5-0.2c-2.3-0.5-5.2,0.4-7.5,1.5c-3.1,1.5-3.1,4.1-0.3,6.2c6.9,5,13.7,10.1,20.9,14.7
			c5.8,3.7,10.2,8.7,14.1,14.3c-0.5-0.4-1.1-0.8-1.6-1.1c-6.6-3.9-13.2-7.8-19.9-11.7c-4.4-2.6-8.7-5.6-13.2-7.9
			c-3.1-1.6-6.6-2.3-9.9-3.5c-2.8-1-5.6-2.2-8.4-3.3c-1.9-0.7-3.9-1.9-5.7-1.6c-5.8,0.7-11.3-0.9-16.8-2.1c-2.8-0.6-4.9,0.2-7,1.8
			c-8.9,6.4-18,12.6-26.9,19.1c-4.2,3.1-8,6.6-11.5,9.4c4.8-7.8,11.1-15.3,18.9-21.5c2.4-1.9,5.2-3.5,5.7-7.9
			c-2,0.8-3.6,1.3-5.1,1.9c-4.6,1.8-9.2,3.5-13.8,5.4c-3.1,1.3-6.1,3.1-9.2,4.4c-3.6,1.5-7.4,2.8-11.2,3.7c-3.9,1-8,1.4-12.1,1.5
			c2.3-0.8,4.5-1.6,6.8-2.4c5.3-1.8,10.4-3.9,14.6-7.8c1.7-1.6,4.3-2.2,6.4-3.2c6.7-3.1,13.5-6.1,20.2-9.1c0.6-0.3,1.1-0.8,2.2-1.6
			c-25.5-1.8-49.9,1.9-74.3,5.5c-0.1-0.3-0.1-0.6-0.2-0.9c5-1.2,9.9-2.8,14.9-3.6c13.7-2.4,27.4-4.3,41.1-6.8
			c5.9-1,11.8-2.4,17.3-4.6c6.5-2.6,11.9-6.9,12.5-14.8c0-0.6,0.2-1.2,0.5-1.8c3.1-6.9,3-14.2,3.2-21.5c0.1-2.6,0.7-5.2,0.7-7.8
			c0-5,0-9.9-0.4-14.8c-0.2-3.1-2.5-5.1-5.2-6.7c-7.4-4.5-14.9-9-22.2-13.7c-1.5-1-2.8-2.4-3.8-3.8c-3.8-5.3-9.3-7.7-15.3-9.1
			c-1.8-0.4-3.8,0-5.6,0.4c-5.9,1.2-11.8,2.7-17.8,3.9c-3,0.6-5.7-0.2-8.3-1.9c-2.8-1.8-5.8-3.4-9-4.2c-2-0.5-5.1-0.1-6.4,1.2
			c-5.2,4.9-11.6,5.9-18.1,7c-2.9,0.5-5.8,0.8-8.9,0.7c4.1-1.6,8.2-3.3,12.4-4.7c4.7-1.5,8.9-3.8,12.6-7.1c1.3-1.2,3.3-1.8,5.1-2.7
			c-0.3-3.4-3-5.2-6.6-3.9c-0.4,0.1-0.8,0.3-1.1,0.5c-6,5.2-12.8,4.1-19.6,2.5c-2-0.5-3.9-0.9-6-1.3c4.3-0.3,8.6-0.3,12.8-0.9
			c2.6-0.4,5.4-1.2,7.7-2.6c7.4-4.6,17-2.6,21.8,5c2.9,4.7,6.8,5.5,11.9,4.6c-6.7-1.6-8.2-6.8-9.3-12.4c5.5,0,8.8,4,10.6,13
			c5.7-0.8,11.5-1.6,17.3-2.5c7.2-1.1,13.7,0,19.2,5.1c1.8,1.6,3.7,2.9,5.8,4.2c-4.3-3.8-3.8-8.4-2.9-13.4c4.2,2.1,5.3,5.5,5.3,9.6
			c0,5.7,0.1,5.6,5.9,5.1c2.6-0.2,5.2,0,7.9-0.1c4.3,0,6.1-2.2,4.9-6.3c-1.6-5.7-3.9-10.9-9.6-14.2c-2.1-1.3-3.3-4.2-5-6.3l0.1,0.1
			c0-1.2,0-2.4,0-3.6c0.1-5.9-0.4-6.9-6-9c-3.3-1.2-6.8-1.7-10.3-2.6c-3.8-0.9-7.6-1.8-11.8-2.7c1.4,6.6-2.4,10.5-7.9,13.7
			c-1.8-7,2.7-10.6,7.3-14.2c-6.5-4.9-13.2-1.6-20.2-0.9c1.2,4.9-1.1,7.9-5.3,10.1c-1.4-4.4,1.6-6.8,3.8-8.9
			c-7.9-0.8-15.9-1.7-23.9-2.4c-4.4-0.4-8.5,0.6-12,3.4c-4.9,4-9.8,8.1-14.6,12.2c-0.5,0-0.9,0.1-1.4,0.1c-3.2-0.5-6.4-0.8-9.6-1.4
			c-7.1-1.3-9.8,0.8-10.1,7.9c0,0.5,0,1-0.1,1.5l0.1-0.1c-1.4,3.1-2.8,6.2-4.1,9.4c-2,4.9-0.8,9.5,1.4,14c1.5,3.2,1.3,6.1-0.7,9.2
			c-1.7-2.3-1.9-3.1-0.4-5.8c0.7-1.3,0.8-2.2-0.1-3.5c-4.3-6.3-5.2-12.6,0.1-18.9c2.1-2.5,1.1-5.3,0.1-8
			c-11.4,2.4-16.3,0.7-25.2-9.3c2.4,1.1,4.7,2.2,7.2,3.2c3.7,1.4,7.3,2.8,11.1,3.8c2.3,0.6,4.1-0.5,5.6-2.7c1.2-1.9,3.2-3.2,4.8-4.8
			l-0.1,0.1c4.4-1.8,8.8-0.9,13.1,0.1c2.6,0.6,4.7,0,6.7-1.8c1.7-1.5,3.6-2.8,5.6-4.4c-3.4-2.2-6.5-4.2-9.6-6.3
			c-2.8-1.9-3.8-4.4-3.5-8.1c0.2-2.5-1.3-5.1-2.3-7.6c-0.4-1.2-1.4-2.2-2.1-3.4c4.9,1.4,7.5,5.3,7.2,11.5c-0.1,3.1,0.9,5,4.1,5.6
			l0,0c3.3,1.3,6.5,2.6,9.8,3.8c0.6,0.2,1.6-0.1,2.2-0.5c7.4-4.4,15.2-7.5,24.2-5.6c-4.8-1.9-6.5-5.9-7.9-10.3
			c4.4-0.2,6.6,1.3,8.6,5.7c2.5,5.6,2.5,5.4,8.9,4.3c3.8-0.7,7.8-0.6,11.8-0.8c1.1-0.1,2.1,0,3.9,0
			C163.9,232.8,160.3,229.1,156.8,225.4l0,0.1L156.8,225.4L156.8,225.4z"/>
		<path class="st1" d="M325.4,334c-8.8-3.4-11.9-13.5-9.9-25.1C325.1,312.9,327.7,320.3,325.4,334z"/>
		<path class="st1" d="M379,296c9.1-2.3,17.7,4.2,22.4,15.3C390.5,312.7,386,309.6,379,296z"/>
		<path class="st1" d="M348.5,279.9c-2.4-9.3,3-17.2,14.1-23.3C365.3,267.2,360.8,272.8,348.5,279.9z"/>
		<path class="st1" d="M109.3,158.1c-9.6-0.1-17.4-9.7-17.1-20.9C101.4,138,107.2,145.3,109.3,158.1z"/>
		<path class="st1" d="M70.8,185.1c9.7,1.4,15.2,8.2,17.3,20.8C79.6,206.9,71.4,197.1,70.8,185.1z"/>
		<path class="st1" d="M179.2,129c-7.1-7.4-6.8-18.2,0.8-27.3C186.3,108.2,186.1,118.3,179.2,129z"/>
		<path class="st1" d="M87.2,254.4c-10.9-1.6-17.4-9.2-17.7-21.4c5.2,0.8,9.7,2.8,12.1,7.4c2.3,4.4,3.7,9.4,5.4,14.1L87.2,254.4z"/>
		<path class="st1" d="M138,314.6c-1.9-9.2,1.9-16.5,14.2-23.3C154.5,301.8,150.9,306.8,138,314.6z"/>
		<path class="st1" d="M200.1,216.3c-1.5-10.1,4.4-19.4,14.4-23.1C216.7,203.1,211.8,211,200.1,216.3z"/>
		<path class="st1" d="M393.4,178.7c4.9-7.5,13.7-8.9,24.7-5.1C412.3,182.1,405.9,182.5,393.4,178.7z"/>
		<path class="st1" d="M395,286.4c2.1-8.5,10.5-12.9,21.8-12.4C415.5,282.2,408.2,286.4,395,286.4z"/>
		<path class="st1" d="M260.9,200.5c2.5,8.2-1.4,14.6-12.4,20.7C245.8,214,251,205.2,260.9,200.5z"/>
		<path class="st1" d="M176.8,211.6c7,5.1,8.1,13.1,4.3,23.7C173.2,230.2,172.6,223.4,176.8,211.6z"/>
		<path class="st1" d="M69.2,265.3c1.3,9.7-2.7,16.1-12.5,20.1C54.3,278.2,59.9,269.2,69.2,265.3z"/>
		<path class="st1" d="M376.7,145.8c-6.9-4.4-8.7-12.7-5-23.4C379.9,127,380.4,134.3,376.7,145.8z"/>
		<path class="st1" d="M211.6,123.8c1.8-8.4,8.1-13.1,18.8-14C230.7,117.7,221.4,124.6,211.6,123.8L211.6,123.8L211.6,123.8z"/>
		<path class="st1" d="M128,269.5c-6.2-6.3-5.9-13,0.7-23.4C134.3,251.7,134,260.3,128,269.5z"/>
		<path class="st1" d="M365.6,319.9c-6.7-6.4-6.5-12.5-0.6-23.3C370.8,301.6,371,310.3,365.6,319.9z"/>
		<path class="st1" d="M386.9,140.5c-0.8-7.7,5.8-14.4,15.8-16.8C403,131.9,398.2,137.2,386.9,140.5z"/>
		<path class="st1" d="M415,197.7c-0.8-9.1,2.6-13.5,13.8-18.1C430.5,186.8,424.4,194.9,415,197.7z"/>
		<path class="st1" d="M304.3,210.5c-7.1-5.7-8.3-10.5-4-22.8C307.1,191.7,308,200.9,304.3,210.5z"/>
		<path class="st1" d="M361,215.2c7.5-3.6,14.4-1.8,22.1,5.9C375.6,226.2,368.9,223.5,361,215.2z"/>
		<path class="st1" d="M327.7,142.1l0.2-0.2c5.8-5.9,12.9-6.5,20.5-4.9c0.5,0.1,1,0.2,1.5,0.4c0.3,0.1,0.5,0.3,1,0.6
			c-3.2,3.9-6.6,7-12,6.7c-3.2-0.2-6.4-0.7-9.6-1.2C328.7,143.4,328.2,142.6,327.7,142.1L327.7,142.1L327.7,142.1z"/>
		<path class="st1" d="M287.7,153.6c8.4,4.3,9.4,9.5,7.5,21.3C288.1,172.2,285.3,163.3,287.7,153.6z"/>
		<path class="st1" d="M265.2,98.9c3.9-6.6,12.3-8.2,22.5-5.2C283,101.6,276,102,265.2,98.9z"/>
		<path class="st1" d="M71.4,143.4c8,4.6,9.2,9.7,7.9,21.7C72.2,163.2,69.6,152.4,71.4,143.4z"/>
		<path class="st1" d="M399.7,141c4.9,7.8,4.4,12-3.1,22.3C391.8,157.3,392.9,148.4,399.7,141z"/>
		<path class="st1" d="M129.2,126.9c-7.1,5.5-12.5,4.7-22.4-2.2C112.5,119.3,121.4,121,129.2,126.9z"/>
		<path class="st1" d="M107.4,183.3c-7.2-3.5-9.6-12.3-7.8-21.9C106.9,164.8,109.5,171.9,107.4,183.3z"/>
		<path class="st1" d="M234.8,124.9c5.3,5.6,5.1,13.6-0.6,22.2C228.4,142.1,228.7,133.2,234.8,124.9z"/>
		<path class="st1" d="M278.6,138.8c-7.1-3.8-9.5-10.7-7.4-20.7C279.1,121.6,280.8,127.5,278.6,138.8z"/>
		<path class="st1" d="M328.8,124.8c-8.7-1.7-14.2-8.1-14.6-17.4c5,0.9,9.4,2.6,11.3,7.8C326.8,118.3,327.7,121.6,328.8,124.8
			L328.8,124.8L328.8,124.8z"/>
		<path class="st1" d="M365,188.5c-2.7-7,1.6-13.9,10.4-17.9C378,179,374.8,183.7,365,188.5z"/>
		<path class="st1" d="M349.6,148c3.6,6.4,1.8,14.1-6.1,21C339.6,161.9,341.5,155.4,349.6,148z"/>
		<path class="st1" d="M286.4,137.5c-2.2-7.3,3.1-14.3,11.2-18.3C299.9,127.3,295.8,132.3,286.4,137.5z"/>
		<path class="st1" d="M213,179.5c-0.3-0.3-0.6-0.5-0.9-0.8c-0.1-0.3,0-0.7-0.2-0.9c-5.7-6.1-3.3-12.7-1.5-19.6
			c3.1,2.1,5.3,4.8,5.6,8.2c0.3,3.9-0.4,7.8-0.9,11.7C214.9,178.6,213.7,179,213,179.5z"/>
		<path class="st1" d="M354.8,249.3c-6.6,4.1-13.6,2.2-20.7-5.5C340,239.8,348.6,242.1,354.8,249.3z"/>
		<path class="st1" d="M427.2,268.2c-8.1,0.6-12.7-3.1-16.4-13.4C417.9,252.9,424.4,259.8,427.2,268.2z"/>
		<path class="st1" d="M164.1,142.2c5.3-5.7,12.5-6.3,21.4-2.1C181,146.3,173.5,147.1,164.1,142.2z"/>
		<path class="st1" d="M248,195.1c1.3-7.6,7.8-12.9,16-13C263.8,189.3,258.4,193.8,248,195.1L248,195.1L248,195.1z"/>
		<path class="st1" d="M453.1,188.7c-3.1,6.7-9.1,9.3-18.3,8.1C437,189.6,442.9,187.4,453.1,188.7z"/>
		<path class="st1" d="M306.4,234.4c4.8,5.4,4.1,12.1-2.1,19.8C299.6,249.8,300.8,240.9,306.4,234.4z"/>
		<path class="st1" d="M429.4,251.1c5.2-6,10.7-6.2,20.1-1.5C445.5,254.8,438.4,255.3,429.4,251.1z"/>
		<path class="st1" d="M201.2,136.4c-6.2-2.6-8.6-9.2-6.7-18.4C201.6,120.8,203.2,126.7,201.2,136.4z"/>
		<path class="st1" d="M139.5,105.3c7.1,3.8,8.4,8,6.6,18.5C140.1,121.6,137.3,114,139.5,105.3z"/>
		<path class="st1" d="M220.4,250.4c-5.4-5.5-5.5-10.4-0.4-19.6C225.5,235,224.8,243,220.4,250.4z"/>
		<path class="st1" d="M154.9,155.8c5.8,2.5,8.6,9.5,6.3,18.6C154.2,170.8,152.9,166.1,154.9,155.8z"/>
		<path class="st1" d="M246.9,102.5c7.6,2.1,9.5,6.6,9.8,16.5C250.1,118.2,246.8,110.9,246.9,102.5L246.9,102.5L246.9,102.5z"/>
		<path class="st1" d="M307,168.1c5.1-4.1,12-3.4,19,1.9C320.6,174.7,314.9,174.1,307,168.1z"/>
		<path class="st1" d="M75.3,213.7c5.9-2.4,12.5,0.7,17.1,8.1C86.1,224.5,79.6,221.4,75.3,213.7z"/>
		<path class="st1" d="M252.9,79.8c6.9,1.9,9.7,6.7,9.4,16C256.2,94.6,252.5,88.5,252.9,79.8L252.9,79.8L252.9,79.8z"/>
		<path class="st1" d="M210.2,213.5c5.4-3.2,11.5-1.6,17.3,4.6C222.5,221.9,215.2,220,210.2,213.5L210.2,213.5L210.2,213.5z"/>
		<path class="st1" d="M209.4,264.6c-2,2.4-6.7,3.5-9.8,1.8c-2.9-1.5-5.5-3.6-8.7-5.6c4.1-2.2,7.7-2.5,11.2-0.6
			c2.6,1.4,4.9,3,7.4,4.6L209.4,264.6z"/>
		<path class="st1" d="M331.4,101.4c4.6,5.7,4.4,10.1-0.6,18.2C326.3,115.6,326.5,107.9,331.4,101.4z"/>
		<path class="st1" d="M387.7,250.8c-7.2,1.2-10.8-2-14.6-10C379.1,239.6,384.2,242.9,387.7,250.8z"/>
		<path class="st1" d="M417.1,298c-6.8,2.8-10.9,1.5-17-5.4C405,289.3,411.9,291.5,417.1,298z"/>
		<path class="st1" d="M178.4,280c-5.9-2.6-8.1-7.6-7-15.9C177.8,266.1,179.6,271.5,178.4,280z"/>
		<path class="st1" d="M210.2,121.4c-6,0-10-7.1-10.1-14.1C206.7,108.3,209.6,112.4,210.2,121.4z"/>
		<path class="st1" d="M149.6,184.6c-0.3,0.1-0.6,0.2-0.7,0.4c-3.2,7.2-9.4,7.2-16.1,6.6c2-4.7,5.6-6.6,10.2-7
			C145.2,184.4,147.4,184.6,149.6,184.6L149.6,184.6L149.6,184.6z"/>
		<path class="st1" d="M371.1,204.1c-6.2,3-10.3,1.9-16.4-4.3C359.4,195.7,366.9,199.2,371.1,204.1z"/>
		<path class="st1" d="M320,193.9c-4,0.2-7.2-1.2-9-4.7c-1.3-2.5-2.1-5.2-3.2-8.2c4.4,0.5,7.3,2.2,9,5.6
			C318,188.9,318.8,191.4,320,193.9L320,193.9z"/>
		<path class="st1" d="M199.5,157.9c1.5-6.2,5.3-8.8,13.8-9.7C213.2,154,209.1,157,199.5,157.9z"/>
		<path class="st1" d="M276.4,147.6c5.2-3.9,10.7-3.6,16.5,0.7C288.3,152.7,283.3,152.5,276.4,147.6z"/>
		<path class="st1" d="M191.9,199.1c-5.3,4.1-10.3,3.9-16.4-0.7C179.6,194.4,185.7,194.6,191.9,199.1z"/>
		<path class="st1" d="M294,304.3c6,2.4,7.7,6.1,7.1,14.5C295.9,318.4,292.9,310.8,294,304.3z"/>
		<path class="st1" d="M166.5,290c4.4,4.3,4,9.4-0.6,16.3C162.1,302,162.3,296,166.5,290z"/>
		<path class="st1" d="M141.7,164c-6,0.2-9.5-3.4-11.4-11.3C135.2,151.4,140.9,157.4,141.7,164z"/>
		<path class="st1" d="M64.2,241.9c5.3,3.4,6.3,7.6,3.8,15.7C63.1,255.1,61.4,248.2,64.2,241.9L64.2,241.9L64.2,241.9z"/>
		<path class="st1" d="M95.9,289.6c0.8-6.4,5.1-10.5,11.6-11.3C107.6,284.3,104,287.9,95.9,289.6z"/>
		<path class="st1" d="M266.5,86.1c-1.4-5.8,1.2-10.7,7.6-14C276,77.8,274,82,266.5,86.1z"/>
		<path class="st1" d="M117.2,293.8c1.4,6.7-1.1,11.2-7.7,14.2C108,302.3,110.5,297.6,117.2,293.8z"/>
		<path class="st1" d="M252.2,155.7c0.5,7.8-1.1,10.7-7.8,14.4c-2.1-5.1,1.6-10.6,7.9-14.3L252.2,155.7z"/>
		<path class="st1" d="M185.5,288c1.5,6.3-0.4,9.8-7.3,13.9C176.1,297.3,178.7,292.3,185.5,288z"/>
		<path class="st1" d="M151.6,143.5c0-6.6,2.2-9.2,9.9-11.9C163.3,136.6,157.4,142,151.6,143.5z"/>
		<path class="st1" d="M242.5,199.5c2,6.2,0,10.7-6.2,14.4C234.4,208.4,236.3,203.8,242.5,199.5z"/>
		<path class="st1" d="M317.6,280.9c-5.9,2.6-9.7,1.4-14.8-4.5C307.1,273.1,313.8,276.4,317.6,280.9z"/>
		<path class="st1" d="M281.9,247.1c0.3-0.1,0.6-0.1,0.9-0.2c5.6-1.8,9.7-0.6,14.4,4C292.5,254.4,286.5,252.9,281.9,247.1
			L281.9,247.1L281.9,247.1z"/>
		<path class="st1" d="M455.9,228.5c-5.1,4-9.8,3.8-15.5-0.4C443.7,224.2,450.1,224.7,455.9,228.5z"/>
		<path class="st1" d="M403.2,184.6c0.9,6.5-1.3,10-8,13.1C393.6,192.6,396.5,187.8,403.2,184.6L403.2,184.6L403.2,184.6z"/>
		<path class="st1" d="M339.1,256.6c-4.9,4.3-9.7,4.3-15.5,0.3C326.8,252.7,333.4,253.2,339.1,256.6z"/>
		<path class="st1" d="M286.9,273.4c-4.6-4.5-5-9.4-1.6-15.5C289.5,260.8,290,267.2,286.9,273.4z"/>
		<path class="st1" d="M99.2,199.1c2.2-4.9,9.9-5.4,14.9-3.1C110.8,200.9,107.2,201.7,99.2,199.1z"/>
		<path class="st1" d="M320.8,232.7c-6.3,0.3-8.7-3.1-11-10.2C314.9,221.6,319.9,226.2,320.8,232.7z"/>
		<path class="st1" d="M226,186.3c-3.1-5.3-0.8-10.3,4.6-14.6C233.1,176.6,231.5,181.5,226,186.3z"/>
		<path class="st1" d="M415.1,138.2c2.4,5.4,0.7,9.6-5.6,14.2C406.9,148.2,409.7,141.7,415.1,138.2z"/>
		<path class="st1" d="M161.4,202.4c-4.4,4.4-8.6,3.8-15.2-0.2C149.5,198.4,154.9,198.4,161.4,202.4z"/>
		<path class="st1" d="M364.6,144.2c3.5,5.3,2.8,9.7-2.1,15.1C359.1,156.1,359.9,149.7,364.6,144.2z"/>
		<path class="st1" d="M386.2,198.6c0.1,0.1,0.1,0.2,0.2,0.2c3.5,5.8,1,10.5-2.5,15.1C380.4,209.3,381.4,202.9,386.2,198.6
			L386.2,198.6L386.2,198.6z"/>
		<path class="st1" d="M44.1,262.8c2.1-4.7,7.2-6.4,14.5-4.9C56.4,263,52.4,264.4,44.1,262.8z"/>
		<path class="st1" d="M82.7,233.2c4.3-3.6,9.1-3.5,15.3,0.2C93.9,238.3,89.1,237,82.7,233.2z"/>
		<path class="st1" d="M338.8,267.6c-1.6-4.9,1.5-9.6,7.8-12.9C348.5,260,345.7,264.7,338.8,267.6z"/>
		<path class="st1" d="M380,155.1c5.8,2,7.6,5.4,7.4,13.1C382.3,167.4,379.1,161.9,380,155.1z"/>
		<path class="st1" d="M70.9,174.9c4.5-3.6,9.2-3.5,15.3,0.4C82.9,179.5,77.1,179.3,70.9,174.9z"/>
		<path class="st1" d="M181.3,162.6c-6.4,1.1-10.3-1-13.2-6.9C173.4,154.2,177.8,156.5,181.3,162.6z"/>
		<path class="st1" d="M179.4,153.5c4.6-2.8,9.9-1.7,14.6,3C189.2,159.7,184.7,158.8,179.4,153.5z"/>
		<path class="st1" d="M328.5,236.6c-0.1-0.3-0.1-0.7-0.3-0.8c-5.1-4.1-4.2-9.2-2.3-14.7c3.8,2.8,4.5,6.4,3.8,10.5
			C329.5,233.3,329,234.9,328.5,236.6C328.5,236.6,328.5,236.6,328.5,236.6L328.5,236.6L328.5,236.6z"/>
		<path class="st1" d="M365.1,244.6c4.7,2.5,5.9,7,4,13.7C364.3,255.7,363.4,252.7,365.1,244.6L365.1,244.6L365.1,244.6z"/>
		<path class="st1" d="M157.4,112.7c5.9,1.4,7.6,3.8,8.6,11.6C161.3,124.5,158.2,120.4,157.4,112.7z"/>
		<path class="st1" d="M222.9,147.2c-5.8-2-8.6-6-8.3-12C219.7,135.6,222.4,139.6,222.9,147.2L222.9,147.2z"/>
		<path class="st1" d="M354.5,300.5c-5-3.1-5.9-6.1-4.1-13.8C355.2,288.2,355.9,294.1,354.5,300.5z"/>
		<path class="st1" d="M129.2,291c3.6,4.5,3.6,7,0.2,13.5C125.8,301.4,125.7,296.5,129.2,291z"/>
		<path class="st1" d="M189.8,267.3c1.5,5.2-0.4,8.7-6.3,11.8C182.1,274.7,183.9,271,189.8,267.3z"/>
		<path class="st1" d="M235,248.5c1.8,4.6-0.7,8.3-6.1,11.4C227.2,255.4,229.8,250.6,235,248.5z"/>
		<path class="st1" d="M263.2,112.4c1.4-5,4.8-7.2,10.9-7.6C274,109.5,269.7,112.4,263.2,112.4z"/>
		<path class="st1" d="M138.4,209.9c-3.7-3.5-4-7.2-1.2-13.1C142.1,200.5,140.9,204.2,138.4,209.9z"/>
		<path class="st1" d="M186.4,178.7c0.9-4.6,5.1-7.4,10.6-6.9C195.6,177,192.3,179.2,186.4,178.7z"/>
		<path class="st1" d="M384,257.6c-0.2,5.3-2.3,7.4-9.1,9.2C374.6,262.4,377.2,259.7,384,257.6z"/>
		<path class="st1" d="M334.8,183.5c-0.8,4.9-3.5,6.7-10.4,7.2C325,186.2,329,183.4,334.8,183.5z"/>
		<path class="st1" d="M115.6,220.6c0.3,0.8,1,1.8,0.8,2.4c-1.7,4.8-6,4.9-10.3,5.7c0.5-3.2,2.2-5.1,4.8-6.2
			C112.5,221.9,114,221.3,115.6,220.6C115.6,220.6,115.6,220.7,115.6,220.6L115.6,220.6z"/>
		<path class="st1" d="M233.9,153.6c-1.2,6.1-5.9,6.7-10.6,7.5C223.7,156.5,227.4,153.9,233.9,153.6z"/>
		<path class="st1" d="M258.1,144.9c-4.9,2.1-8.7,0.2-11.8-5.9c3.7-1,6.4,0.5,8.8,3.1C256.1,143.1,257.1,144,258.1,144.9
			C258.1,145,258.1,144.9,258.1,144.9L258.1,144.9z"/>
		<path class="st1" d="M311.2,296.2c1.1-5.2,3.6-7.1,10.1-7.8C322,292.5,316.7,296,311.2,296.2z"/>
		<path class="st1" d="M237.8,185.5c2.5-3.8,5.9-4.5,12.1-2.8C247.8,187,243.6,187.9,237.8,185.5z"/>
		<path class="st1" d="M345.3,320.5c-4.8,0-7.6-2.4-9.2-7.7C340.5,312,342.9,314,345.3,320.5z"/>
		<path class="st1" d="M97.7,304.3c0-5.6,3.7-7.7,7.8-9.5C106.4,299.4,104.5,301.8,97.7,304.3z"/>
		<path class="st1" d="M71.6,294.5c0-5.5,3.7-7.6,7.8-9.5C80.9,289.8,76.7,293,71.6,294.5z"/>
		<path class="st1" d="M268.7,190.6c4.3,2.3,5.8,6.2,4.6,11.1C269,200,267.9,197.6,268.7,190.6z"/>
		<path class="st1" d="M296.6,146.1c5.1,1,6.6,4.7,7.6,8.8C300.1,155.6,297.1,152,296.6,146.1z"/>
		<path class="st1" d="M353.4,227.5c1.9-4.1,4.7-5.4,10.3-5.1C362.4,226.7,360.1,227.8,353.4,227.5z"/>
		<path class="st1" d="M298.5,228.5c3.2-2.8,6.4-2.7,11.2,0.2C306.6,231.9,303.4,231.8,298.5,228.5z"/>
		<path class="st1" d="M56.5,252.7c-4.3-2-5.3-4.2-4.8-10.1C55.5,243.7,56.9,246.6,56.5,252.7z"/>
		<path class="st1" d="M402.3,244.5c2-4.9,6.1-4.9,10.1-5.3C411.6,243.6,408.9,245,402.3,244.5z"/>
		<path class="st1" d="M332.4,197.6c1.6,4.2,0.5,6.7-4.3,10.3C326.3,204,327.9,200.3,332.4,197.6z"/>
		<path class="st1" d="M394.1,267.3c2.2-4.2,5.4-5.6,10.1-4.9C403.3,266.9,399.6,267.6,394.1,267.3z"/>
		<path class="st1" d="M123.2,286.5c-4.9,0.6-6.9-0.4-9.7-5.2C117.4,279.9,121.6,282.2,123.2,286.5z"/>
		<path class="st1" d="M114.4,264.7c4.1,1.8,5.1,4.2,4.8,10.1C114.8,273.9,114,270.1,114.4,264.7z"/>
		<path class="st1" d="M107.3,259.9c0.5,0,0.9-0.1,1.4-0.1c0.4-0.1,0.9-0.2,1.4-0.3c-0.6,4.8-2.2,6.4-8,7.7
			C101.8,263.2,104.8,261.7,107.3,259.9L107.3,259.9L107.3,259.9z"/>
		<path class="st1" d="M87.5,267.9c5-0.9,7.8,0.4,10.7,5.2c-2.8,1.1-5.1,0.5-7.2-1.5C89.8,270.4,88.8,269.1,87.5,267.9
			C87.6,267.8,87.5,267.9,87.5,267.9z"/>
		<path class="st1" d="M209.9,183.1c-2.1,4.3-4.8,5.5-9.9,4.3C201.4,183.8,204.4,182.5,209.9,183.1z"/>
		<path class="st1" d="M234.6,228.4c-1.9,4.2-4,5.1-9.8,4.4C226,229,228.7,227.8,234.6,228.4z"/>
		<path class="st1" d="M289.9,288.1c1.9-3.9,4.5-5,9.9-4.4C298.4,287.8,296,288.9,289.9,288.1z"/>
		<path class="st1" d="M199.1,299.1c-1.9,4.3-4.7,5.4-9.9,4.2C190.9,299.6,193.4,298.6,199.1,299.1z"/>
		<path class="st1" d="M197.9,232c2.2-4.3,4.5-5.4,10.4-4.8c-0.6,2.6-2.3,4-4.8,4.3C201.7,231.8,199.8,231.8,197.9,232L197.9,232
			L197.9,232L197.9,232z"/>
		<path class="st1" d="M193.4,250.5c0,4.2-2,6-7.9,7.1C185.5,253.8,188.1,251.5,193.4,250.5z"/>
		<path class="st1" d="M96,243.7c3.8,1.6,4.9,4.1,4.4,9.7C96.4,252.4,94.9,249.1,96,243.7z"/>
		<path class="st1" d="M126.5,238.4c-4.6,1.2-7.3-0.3-9.7-5C121.1,232.5,123.4,233.7,126.5,238.4z"/>
		<path class="st1" d="M73.8,273.8c1.8-3.9,4.2-4.9,9.8-4.5C82.5,273.3,80.2,274.4,73.8,273.8z"/>
		<path class="st1" d="M156.7,225.3c-3.8,3.1-6,3.1-11.1-0.1c2.1-2,4.4-2.2,6.9-1.4C154,224.3,155.4,224.9,156.7,225.3L156.7,225.3
			L156.7,225.3L156.7,225.3z"/>
		<path class="st1" d="M148.8,135.1c0.8,4.2,0,5.7-4.5,8.7C142.8,140.3,144.5,137,148.8,135.1z"/>
		<path class="st1" d="M271.3,262.3c2.1-4.4,5.8-3.6,9.3-3.4C279.6,262.3,276.2,263.6,271.3,262.3z"/>
		<path class="st1" d="M115.2,213.4c-4.3-0.1-5.8-1.5-7.3-6.6C111.3,206.2,113.8,208.4,115.2,213.4z"/>
		<path class="st1" d="M268,276.7c1.3-4.1,3.2-5.2,8.4-5.1C275.5,275.2,273,276.8,268,276.7z"/>
		<path class="st1" d="M208.8,278.5c1.9-3.3,4.4-4.2,9.2-3.1C216.4,279,213.3,280.1,208.8,278.5z"/>
		<path class="st1" d="M213.1,284.5c4.4-0.3,6.5,2.3,8.4,5.5C217.1,290.9,214.9,289.5,213.1,284.5z"/>
		<path class="st1" d="M343.1,208.6c0.1-0.3,0.2-0.7,0.2-1c2.9-1.5,5.8-2.2,8.9-0.8C350.2,210.2,347.6,210.7,343.1,208.6
			L343.1,208.6z"/>
		<path class="st1" d="M106.3,240.2c1.5-5.6,1.8-6.1,5.2-8.1C112.7,236.1,110.4,239.6,106.3,240.2L106.3,240.2z"/>
		<path class="st1" d="M171.4,179.9c1.5-5.6,1.8-6,5.2-8.1C177.8,175.9,175.6,179.3,171.4,179.9L171.4,179.9L171.4,179.9
			L171.4,179.9z"/>
		<path class="st1" d="M283.9,212.2c1.5-3.9,3.8-5.3,7.9-5C290.6,211,288.9,212.2,283.9,212.2z"/>
		<path class="st1" d="M330.9,174c3.5-2.8,6.4-1.4,9.5,0.2C337.8,177.1,335.6,177,330.9,174z"/>
		<path class="st1" d="M318.5,148.3c0.2-0.2,0.4-0.3,0.6-0.5c4.4-0.6,6-0.2,8.8,2.3C324.7,152.4,321.7,151.8,318.5,148.3
			L318.5,148.3L318.5,148.3z"/>
		<path class="st1" d="M389.6,148.8c-2.8,3.2-4.4,3.4-9.3,1.6C382.3,147.6,384.3,147.2,389.6,148.8z"/>
		<path class="st1" d="M154.4,184.4c0-0.1,0.1-0.2,0.1-0.4c-0.8-3.9-0.5-5.4,1.7-8.4c2.1,2.9,2.2,5.8,0.1,8.5
			C155.9,184.4,155,184.3,154.4,184.4L154.4,184.4L154.4,184.4z"/>
		<path class="st1" d="M142,214.9c0.5,3.9-1.1,6.7-4.6,8.5c-1.3-3.3,0.3-6.3,4.8-8.4L142,214.9L142,214.9L142,214.9z"/>
		<path class="st1" d="M263.5,150.9c-0.6-4.1,0.7-6.3,4.5-8.2C268.9,146.5,268.2,147.9,263.5,150.9z"/>
		<path class="st1" d="M318.7,160.4c-4.3,1.1-6.4-1.4-8.2-4.4C313.6,154.8,316,156,318.7,160.4z"/>
		<path class="st1" d="M330.1,158.9c3.9-0.8,6,0.4,8.2,4.4C334.4,164.2,333.2,163.6,330.1,158.9z"/>
		<path class="st1" d="M236,168.3c-0.8-3.8,0.3-5.9,4.3-7.9C241.1,164.4,240.2,166,236,168.3z"/>
		<path class="st1" d="M251.1,172.3c3.6-2.3,6.5-1.3,9.6,0.3C257.8,175.3,255.3,175.2,251.1,172.3z"/>
		<path class="st1" d="M163.3,274.6c4.2,0.4,5.7,3.1,6.9,6.3C166.3,281.1,164.9,279.8,163.3,274.6z"/>
		<path class="st1" d="M139.2,270.9c-3.7-1.9-4.3-3.1-3.8-8C138.7,264.2,139.6,266.1,139.2,270.9z"/>
		<path class="st1" d="M261.6,217.8c3.3,1.9,3.4,4.8,3.2,7.8C261.3,224.2,260.6,222.7,261.6,217.8z"/>
		<path class="st1" d="M268,121.7c-0.8,3.9-3.5,4.5-6.8,4.8C262.2,122.9,264.7,122.2,268,121.7z"/>
		<path class="st1" d="M392.3,215.1c-1.6-2.9-0.3-5.1,1.4-7.3C395.6,210.6,395.3,212,392.3,215.1z"/>
		<path class="st1" d="M90.3,284.8c-3.4,1.5-4.8,0.7-6.5-2.6c0.2-0.3,0.3-0.5,0.4-0.8C86.3,282.5,88.3,283.6,90.3,284.8L90.3,284.8
			L90.3,284.8z"/>
	</g>
	<g>
		<g>
			<path class="st2" d="M263.2,370.1c-2.2,3.3-25.4,34.6-76.2,14c0,0-43.1-19.9-49-24.3c0,0,26.1-52.3,33.5-71.1
				c7.4-18.8,29.4-73.6,29.4-73.6S292,172,280.5,109.8c0,0-9.2-21.7-40.5,4.4c0,0-15.1,8.5-50.8,95c0,0-32.4,10.3-54.9-16.6
				l-8.8,9.6c0,0-3.3,7.7,1.1,10.7c4.4,2.9,21,12.9,58.5,7.7c0,0-49.3,121.1-62.2,131.1c0,0-56.3-23.6-66.6-5.9
				c0,0-15.5,28,22.8,41.6c0,0,23.2,5.5,50.1-18c0,0,37.2,26.5,72.5,29.1c35.4,2.6,58.5-14,68.5-27.2
				C270.2,371.2,265.5,366.8,263.2,370.1L263.2,370.1z M264.7,117.5c0,0,15.5,7.4-7.4,39s-50.1,43.1-50.1,43.1
				S242.3,109,264.7,117.5L264.7,117.5z M92.8,379.3c-27.6,4.4-30.6-21.4-30.6-21.4c2.9-24.7,50.4,7.7,50.4,7.7
				C103.1,376.3,92.8,379.3,92.8,379.3z"/>
			<path class="st2" d="M443.3,324.4c-3.7-2.9-15.5-21-15.5-21s-4.4-5.2,3.7-19.1c8.1-14,1.8-14.4,1.8-14.4
				c-10.7,1.1-9.2,25.8-9.2,25.8l-12.9,28.7c-14,4-15.1,25-15.1,25c-5.9,12.5-16.9,10.7-16.9,10.7c-9.9-3,12.5-46.4,15.8-53.4
				c3.3-7-0.4-6.3-0.4-6.3l-15.5,0.4c3,1.5,3.7,7.4,0.7,13.6c-2.9,6.3-12.9,34.2-12.9,34.2c-18.4,23.9-16.9,7.4-16.2,1.5
				c0.7-5.9,16.6-40.1,17.7-43.1c1.1-3,0-6.6,0-6.6l-27.2,0.7c0,0,14.4-14,10-23.2c-8.8-10.7-13.6,0.7-14,4.8
				c-0.4,4-5.9,24.3-5.9,24.3s-16.2,53.4-36.1,56S285,336.6,285,336.6s13.6,1.1,27.6-12.1c14-13.2,14-32-4.4-28.4
				c-18.4,3.7-32,30.6-32,30.6c1.5-30.9-20.6-28.4-23.2-26.5c-2.6,1.8,2.2,3.3,2.2,3.3c18.4-2.6,11.4,18.8,11.4,18.8
				c-12.1,33.5-28.4,42-28.4,42c-15.5,5.9-15.8-20.6,1.1-54.9c16.9-34.2,39.4-61.9,39.4-61.9c-0.4-1.5-11.4-1.1-11.4-1.1
				c-10.7,1.8-44.5,74.7-54.5,95S195.5,366,195.5,366c-19.1,5.1-7.4-18.8-7.4-18.8s13.2-32.4,16.6-39c3.3-6.6-1.5-7.4-1.5-7.4
				l-14.4,0.4c3.3,1.8-1.1,14.4-1.1,14.4l-10.3,27.2c-10.3,27.2,9.6,29.5,9.6,29.5c17.7-1.5,29.5-28.7,29.5-28.7
				c-5.2,29.1,18,26.1,18,26.1c24.3-2.2,36.4-28,36.4-28c-0.7,31.7,24.7,25.8,24.7,25.8c28.7-9.6,39.4-61.1,39.4-61.1h10.3
				c10.3,0,5.1,13.6,5.1,13.6l-5.9,11.4c-6.6,9.2-10.7,35.7,1.5,36.1c12.1,0.4,21.4-12.9,21.4-12.9c6.3,23.6,30.2,1.1,30.2,1.1
				s6.3,21.7,30.2,8.5C453.2,349.1,447,327.4,443.3,324.4L443.3,324.4z M313.7,301.2c11.8-0.7-5.9,22.8-8.1,23.9
				c-2.2,1.1-8.8,8.1-19.5,7C286.1,332.2,301.9,302,313.7,301.2L313.7,301.2z M416.4,365.7c0,0-22.5,1.1-12.9-19.9
				c0,0,3.3-4,8.1-5.5s9.6-9.9,2.6-16.2l10.7-25.4c0,0,4,18,8.1,24.3C437,329.2,433,357.2,416.4,365.7L416.4,365.7z"/>
			<path class="st2" d="M309.3,286.9c8.5-2.6,30.6-14.4,30.6-14.4s7.4-10.7-8.1-7.7l-26.5,19.9C305.2,284.7,300.8,289.5,309.3,286.9
				L309.3,286.9z"/>
		</g>
		<g>
			<path class="st3" d="M202.2,274c-5.4-1.1-10.9-1.3-16.3-0.5"/>
			<path class="st3" d="M185.9,273.4c6.1-2.2,10.9-2.6,16.4,0.5"/>
			<path class="st4" d="M202.2,274c-5.3,3.5-10.8,0.1-16.3-0.5"/>
			<path class="st4" d="M185.9,273.4c5.4-0.7,10.9-0.6,16.3,0.5"/>
			<path class="st3" d="M188.1,263.2c6,3.2,11.1,7.2,15.3,11.6"/>
			<path class="st3" d="M203.5,274.8c-3.4-5.9-7.4-9.6-15.4-11.7"/>
			<path class="st4" d="M188.1,263.2c1.4,6.1,9.7,8,15.3,11.6"/>
			<path class="st4" d="M203.4,274.8c-4.2-4.4-9.4-8.4-15.3-11.6"/>
			<g>
				<path class="st5" d="M213.3,288.5c-1.8,5.9-8.1,10.9-13.3,9.3c-6.8-2.1-8.6-10-6.5-16c2.5-7.4,10.6-10.5,16.9-5.4
					C214.1,279.4,214.7,284.2,213.3,288.5L213.3,288.5z"/>
				<path class="st6" d="M211.9,287.9c-1.5,4.8-6.6,8.9-10.9,7.6c-5.5-1.7-7-8.1-5.3-13c2-6,8.6-8.5,13.8-4.4
					C212.5,280.4,213,284.3,211.9,287.9z"/>
				<path class="st7" d="M210.8,287.1c-1.2,4-5.4,7.3-8.9,6.2c-4.5-1.4-5.7-6.6-4.4-10.7c1.7-4.9,7.1-7,11.3-3.6
					C211.3,281.1,211.7,284.2,210.8,287.1L210.8,287.1z"/>
				<g>
					<path class="st8" d="M207.4,282.3c-0.6,1.4-2.3,2.4-2.6,3.9c-0.4,2.4,2.6,2.9,4.2,1.9c2.7-1.9,1.1-7-0.9-8.6
						c-0.4-0.3-0.9-0.6-1.3-0.8C207.5,279.7,208,280.9,207.4,282.3L207.4,282.3z"/>
					<path class="st9" d="M207.5,287c-0.8-0.1-1.2-0.5-1.2-1.1c0-0.6,0.4-1.3,0.8-2c0.4-0.7,0.8-1.3,1-2.1c0.1-0.5,0.1-1,0.1-1.5
						c0.9,0.9,1.6,2.3,1.8,3.7c0.1,1-0.1,1.9-0.6,2.5C208.9,286.8,208.2,287,207.5,287L207.5,287L207.5,287z"/>
				</g>
				<path class="st8" d="M206,291.6c0.1,0,0.3,0,0.4,0c1-0.1,1.8-1.8,2-2.6c-0.2,0.9-1.9,0.7-2.5,1.1
					C205.3,290.6,205.4,291.4,206,291.6L206,291.6z"/>
			</g>
			<path class="st10" d="M193.5,281.8c-0.6,2,2.7,6.8,3.5,8.5c1.1,2.1,2.1,5.1-0.9,6.2c-3,1.1-4.8-2.5-4.9-4.9
				C191.2,288.3,192.5,284.9,193.5,281.8"/>
			<path class="st11" d="M193.2,285.4c0.5,2.3,1.8,4,2.6,6.3c0.7,2.1-0.4,3.8-2.5,2.3C190.9,292.2,192.5,287.8,193.2,285.4"/>
			<path class="st12" d="M193.1,287.9c0.2,1.2,1,2.1,1.4,3.3c0.4,1.1-0.2,2-1.3,1.2C191.8,291.5,192.6,289.2,193.1,287.9"/>
		</g>
		<g>
			<path class="st3" d="M391.1,272c-5.4-1.1-10.9-1.3-16.3-0.5"/>
			<path class="st3" d="M374.8,271.4c6.1-2.2,10.9-2.6,16.5,0.5"/>
			<path class="st4" d="M391.1,272c-5.3,3.5-10.8,0.1-16.3-0.5"/>
			<path class="st4" d="M374.9,271.4c5.4-0.7,10.9-0.6,16.3,0.5"/>
			<path class="st3" d="M377,261.1c6,3.2,11.1,7.2,15.3,11.6"/>
			<path class="st3" d="M392.4,272.8c-3.4-5.9-7.4-9.6-15.5-11.7"/>
			<path class="st4" d="M377,261.1c1.4,6.1,9.7,7.9,15.3,11.6"/>
			<path class="st4" d="M392.3,272.7c-4.2-4.4-9.4-8.4-15.3-11.6"/>
			<g>
				<path class="st5" d="M402.2,286.5c-1.8,5.9-8.1,10.9-13.3,9.3c-6.8-2.1-8.6-10-6.5-16c2.5-7.4,10.6-10.5,16.9-5.4
					C403,277.3,403.6,282.1,402.2,286.5z"/>
				<path class="st6" d="M400.8,285.8c-1.5,4.8-6.6,8.9-10.9,7.6c-5.5-1.7-7-8.1-5.3-13c2-6,8.6-8.6,13.8-4.4
					C401.4,278.3,401.9,282.3,400.8,285.8L400.8,285.8z"/>
				<path class="st7" d="M399.7,285.1c-1.2,3.9-5.4,7.3-8.9,6.2c-4.5-1.4-5.7-6.6-4.4-10.7c1.7-4.9,7.1-7,11.3-3.6
					C400.2,279,400.6,282.2,399.7,285.1L399.7,285.1z"/>
				<g>
					<path class="st8" d="M396.3,280.2c-0.6,1.4-2.4,2.4-2.6,3.9c-0.4,2.3,2.6,2.9,4.2,1.9c2.7-1.9,1.1-7-1-8.6
						c-0.4-0.3-0.9-0.6-1.3-0.8C396.4,277.6,396.9,278.8,396.3,280.2z"/>
					<path class="st9" d="M396.4,284.9c-0.8-0.1-1.2-0.5-1.2-1.1c0-0.6,0.4-1.3,0.8-2c0.4-0.6,0.8-1.3,1-2.1c0.1-0.5,0.1-1.1,0-1.5
						c0.9,0.9,1.6,2.3,1.8,3.7c0.1,1.1-0.1,1.9-0.6,2.5C397.8,284.7,397.1,285,396.4,284.9L396.4,284.9L396.4,284.9z"/>
				</g>
				<path class="st8" d="M394.9,289.5c0.1,0,0.3,0,0.4,0c1-0.1,1.7-1.8,2-2.6c-0.2,0.9-1.9,0.7-2.5,1.1
					C394.2,288.6,394.3,289.4,394.9,289.5z"/>
			</g>
			<path class="st10" d="M382.4,279.8c-0.6,2,2.7,6.8,3.5,8.5c1,2.1,2.1,5.1-0.9,6.2c-3,1.1-4.8-2.5-4.9-4.9
				C380.1,286.2,381.4,282.9,382.4,279.8"/>
			<path class="st11" d="M382.1,283.3c0.5,2.3,1.9,4,2.6,6.3c0.7,2.1-0.4,3.8-2.5,2.3C379.8,290.2,381.4,285.7,382.1,283.3"/>
			<path class="st12" d="M382,285.9c0.2,1.2,1,2.1,1.4,3.3c0.4,1.1-0.2,2-1.3,1.2C380.7,289.5,381.6,287.1,382,285.9"/>
		</g>
	</g>
</g>
<path class="st13" d="M43.8,7.3h413c20.2,0,36.5,16.4,36.5,36.5v412.3c0,20.2-16.4,36.5-36.5,36.5h-413c-20.2,0-36.5-16.4-36.5-36.5
	V43.8C7.3,23.6,23.6,7.3,43.8,7.3z"/>
</svg>
